<svg width="241" height="241" viewBox="0 0 241 241" fill="none" xmlns="http://www.w3.org/2000/svg"><g clip-path="url(#clip0_13_164)"><path d="M192.86 29.6164C165.611 10.152 127.892 15.7283 107.319 41.7124C79.4231 23.7983 41.9364 30.7487 22.472 57.9972C2.51219 85.9749 8.91117 124.969 36.6592 145.123C36.7732 145.23 36.891 145.34 37.0378 145.445L133.8 214.632C134.496 215.129 135.39 215.299 136.239 215.158C137.052 215.022 137.813 214.574 138.278 213.886L207.426 117.064C207.527 116.918 207.6 116.777 207.681 116.667C227.451 88.5649 220.865 49.6015 192.86 29.6164ZM202.259 113.322C202.181 113.431 202.108 113.569 202.03 113.682L134.955 207.651L41.0765 140.524C40.9619 140.414 40.8447 140.307 40.7033 140.235C15.4917 122.169 9.62478 86.9457 27.6187 61.6799C45.6557 36.4732 80.8787 30.6062 106.177 48.5948C107.533 49.5893 109.663 49.2346 110.623 47.8542C128.722 22.6373 163.945 16.7703 189.178 34.7696C214.419 52.834 220.286 88.0571 202.259 113.322Z" fill="#331E23"/><path d="M189.175 34.7701C163.941 16.7708 128.718 22.6378 110.62 47.8547C109.659 49.2351 107.53 49.5898 106.173 48.5953C80.8754 30.6067 45.6523 36.4737 27.6153 61.6804C9.62141 86.9462 15.4884 122.169 40.6999 140.235C40.8413 140.308 40.9553 140.415 41.0731 140.525L134.955 207.651L202.03 113.682C202.108 113.572 202.181 113.434 202.259 113.322C220.286 88.057 214.419 52.834 189.175 34.7701ZM89.8255 97.4607C88.5138 98.6443 86.5304 98.5236 85.3517 97.2409C82.1604 93.7498 79.3017 92.0373 77.5845 92.519C75.422 93.0748 73.8809 96.9628 73.4919 98.6691C73.224 99.9673 72.1586 100.917 70.9388 101.121C70.529 101.189 70.1069 101.163 69.7068 101.071C68.0047 100.707 66.9127 98.989 67.3054 97.2854C67.5018 96.354 69.5371 88.0659 75.9406 86.3526C80.2908 85.2135 85.008 87.4522 90.0395 92.9515C91.2267 94.2659 91.1115 96.2815 89.8255 97.4607ZM149.296 117.189C144.913 129.503 138.335 136.777 129.787 138.778C129.354 138.883 128.883 138.961 128.447 139.034C114.107 141.422 100.237 128.289 99.6537 127.676C98.3922 126.474 98.3499 124.488 99.5552 123.222C100.761 121.96 102.779 121.913 104.041 123.115C104.158 123.258 116.889 135.328 128.338 132.585C134.655 131.112 139.685 125.19 143.31 115.062C143.905 113.418 145.69 112.543 147.367 113.133C149.008 113.732 149.862 115.553 149.296 117.189ZM163.258 88.9603C162.783 89.3942 162.212 89.6518 161.654 89.7447C160.621 89.9167 159.534 89.5805 158.756 88.7748C155.601 85.2779 152.841 83.582 151.01 84.0163C148.887 84.5953 147.34 88.4279 146.923 90.202C146.533 91.9051 144.842 92.9596 143.14 92.5996C141.434 92.2074 140.35 90.5208 140.739 88.8145C140.939 87.8825 142.971 79.595 149.378 77.8844C153.687 76.7157 158.436 78.949 163.445 84.4886C164.627 85.7708 164.544 87.781 163.258 88.9603Z" fill="#B4878E"/><path d="M149.296 117.189C144.913 129.503 138.335 136.777 129.787 138.778C129.354 138.883 128.883 138.961 128.447 139.034C114.108 141.422 100.237 128.289 99.6539 127.676C98.3924 126.474 98.3501 124.488 99.5554 123.223C100.761 121.96 102.779 121.913 104.041 123.115C104.158 123.258 116.89 135.328 128.338 132.585C134.656 131.112 139.685 125.19 143.311 115.062C143.905 113.418 145.69 112.544 147.367 113.133C149.008 113.732 149.862 115.553 149.296 117.189ZM89.8257 97.4608C88.5139 98.6443 86.5306 98.5237 85.3519 97.241C82.1605 93.7499 79.3018 92.0373 77.5847 92.519C75.4222 93.0749 73.8811 96.9629 73.4921 98.6692C73.2241 99.9674 72.1587 100.918 70.939 101.121C70.5292 101.189 70.107 101.163 69.7069 101.071C68.0049 100.707 66.9128 98.9891 67.3056 97.2854C67.502 96.354 69.5372 88.066 75.9407 86.3527C80.291 85.2135 85.0081 87.4523 90.0396 92.9516C91.2269 94.266 91.1116 96.2816 89.8257 97.4608ZM163.258 88.9604C162.783 89.3943 162.212 89.6518 161.654 89.7448C160.621 89.9168 159.534 89.5806 158.757 88.7749C155.601 85.278 152.841 83.5821 151.01 84.0164C148.888 84.5954 147.341 88.428 146.923 90.2021C146.534 91.9052 144.842 92.9596 143.141 92.5997C141.434 92.2075 140.35 90.5209 140.739 88.8146C140.939 87.8826 142.971 79.5951 149.378 77.8845C153.687 76.7158 158.436 78.9491 163.445 84.4887C164.627 85.7709 164.544 87.7811 163.258 88.9604Z" fill="#331E23"/></g><defs><clipPath id="clip0_13_164"><rect width="209.356" height="209.356" fill="white" transform="translate(0 34.3977) rotate(-9.45669)"/></clipPath></defs></svg>