<svg width="28" height="29" viewBox="0 0 28 29" fill="none" xmlns="http://www.w3.org/2000/svg">
  <g clip-path="url(#clip0_402_2)">
    <path d="M22.1088 4.07913C18.9851 1.84778 14.6611 2.48704 12.3026 5.46578C9.10475 3.41216 4.80739 4.20893 2.57604 7.33262C0.287908 10.5399 1.02147 15.0101 4.20242 17.3205C4.21549 17.3328 4.22899 17.3454 4.24582 17.3574L15.3383 25.2888C15.4182 25.3458 15.5206 25.3652 15.6179 25.349C15.7111 25.3335 15.7984 25.2821 15.8518 25.2033L23.7786 14.1039C23.7902 14.0871 23.7986 14.0709 23.8079 14.0583C26.0743 10.8368 25.3192 6.37016 22.1088 4.07913ZM23.1863 13.6749C23.1774 13.6874 23.169 13.7032 23.1601 13.7161L15.4708 24.4885L4.7088 16.7933C4.69567 16.7806 4.68224 16.7684 4.66602 16.7601C1.77585 14.6891 1.10328 10.6512 3.16605 7.75479C5.23375 4.86517 9.27162 4.1926 12.1717 6.25475C12.3272 6.36876 12.5713 6.3281 12.6815 6.16985C14.7562 3.27906 18.7941 2.60649 21.6868 4.66988C24.5803 6.74073 25.2529 10.7786 23.1863 13.6749Z" fill="#331E23"/>
    <path d="M21.6865 4.67012C18.7938 2.60673 14.7559 3.2793 12.6812 6.1701C12.5711 6.32834 12.3269 6.369 12.1715 6.255C9.27135 4.19284 5.23348 4.86541 3.16578 7.75504C1.10301 10.6514 1.77558 14.6893 4.66575 16.7603C4.68197 16.7687 4.69503 16.7809 4.70853 16.7935L15.4709 24.4887L23.1602 13.7163C23.1691 13.7038 23.1775 13.6879 23.1864 13.6751C25.253 10.7788 24.5804 6.74091 21.6865 4.67012ZM10.2974 11.8568C10.147 11.9925 9.91963 11.9786 9.78451 11.8316C9.41866 11.4314 9.09095 11.2351 8.8941 11.2903C8.6462 11.354 8.46953 11.7997 8.42494 11.9953C8.39422 12.1441 8.27208 12.2531 8.13226 12.2764C8.08528 12.2842 8.03689 12.2812 7.99102 12.2706C7.7959 12.229 7.67071 12.032 7.71574 11.8367C7.73825 11.7299 7.97156 10.7798 8.70564 10.5834C9.20434 10.4528 9.74511 10.7094 10.3219 11.3399C10.458 11.4905 10.4448 11.7216 10.2974 11.8568ZM17.1149 14.1184C16.6125 15.53 15.8583 16.3639 14.8785 16.5932C14.8288 16.6053 14.7748 16.6143 14.7248 16.6226C13.081 16.8964 11.4909 15.3909 11.424 15.3206C11.2794 15.1828 11.2746 14.9551 11.4128 14.81C11.551 14.6654 11.7824 14.6599 11.927 14.7978C11.9404 14.8142 13.3999 16.1978 14.7123 15.8834C15.4365 15.7145 16.0131 15.0356 16.4287 13.8746C16.4969 13.6861 16.7015 13.5858 16.8937 13.6534C17.0819 13.7221 17.1798 13.9308 17.1149 14.1184ZM18.7154 10.8823C18.661 10.9321 18.5956 10.9616 18.5316 10.9723C18.4132 10.992 18.2885 10.9534 18.1994 10.8611C17.8376 10.4602 17.5213 10.2658 17.3113 10.3156C17.0681 10.3819 16.8907 10.8213 16.8429 11.0247C16.7982 11.2199 16.6043 11.3408 16.4092 11.2995C16.2136 11.2546 16.0894 11.0612 16.134 10.8656C16.1568 10.7588 16.3898 9.80871 17.1243 9.61262C17.6183 9.47864 18.1627 9.73466 18.7369 10.3697C18.8724 10.5167 18.8628 10.7471 18.7154 10.8823Z" fill="#B4878E"/>
    <path d="M17.1147 14.1183C16.6123 15.5299 15.8582 16.3638 14.8783 16.5931C14.8286 16.6052 14.7746 16.6142 14.7247 16.6225C13.0808 16.8963 11.4907 15.3908 11.4239 15.3205C11.2793 15.1827 11.2744 14.955 11.4126 14.8099C11.5508 14.6653 11.7822 14.6598 11.9268 14.7977C11.9402 14.8141 13.3997 16.1977 14.7122 15.8833C15.4364 15.7144 16.0129 15.0355 16.4286 13.8745C16.4968 13.686 16.7013 13.5857 16.8935 13.6533C17.0818 13.722 17.1796 13.9307 17.1147 14.1183ZM10.2972 11.8567C10.1468 11.9924 9.91947 11.9785 9.78435 11.8315C9.4185 11.4313 9.09079 11.235 8.89393 11.2902C8.64603 11.3539 8.46937 11.7996 8.42477 11.9952C8.39406 12.144 8.27192 12.253 8.1321 12.2763C8.08512 12.2841 8.03672 12.2811 7.99086 12.2705C7.79574 12.2289 7.67055 12.0319 7.71557 11.8366C7.73808 11.7298 7.9714 10.7797 8.70548 10.5833C9.20418 10.4527 9.74494 10.7093 10.3217 11.3398C10.4578 11.4905 10.4446 11.7215 10.2972 11.8567ZM18.7153 10.8822C18.6608 10.932 18.5954 10.9615 18.5314 10.9722C18.413 10.9919 18.2884 10.9533 18.1992 10.861C17.8375 10.4601 17.5211 10.2657 17.3112 10.3155C17.0679 10.3818 16.8906 10.8212 16.8427 11.0246C16.798 11.2198 16.6041 11.3407 16.4091 11.2994C16.2134 11.2545 16.0892 11.0611 16.1338 10.8655C16.1567 10.7587 16.3896 9.80862 17.1241 9.61252C17.6181 9.47854 18.1626 9.73457 18.7367 10.3696C18.8722 10.5166 18.8627 10.747 18.7153 10.8822Z" fill="#331E23"/>
  </g>
  <defs>
    <clipPath id="clip0_402_2">
      <rect width="24" height="24" fill="white" transform="translate(0 4.62744) rotate(-9.45669)"/>
    </clipPath>
  </defs>
</svg>